<svg width="100" height="100" viewBox="0 0 100 100" fill="none" xmlns="http://www.w3.org/2000/svg">
<path d="M65.625 29.6705V22.6135L74.6705 4.52266C75.1543 3.55371 75.1023 2.40313 74.5332 1.48164C73.9639 0.561523 72.9584 0 71.875 0H59.375C58.5465 0 57.7514 0.329688 57.1654 0.915625L53.125 4.95605L49.0846 0.915625C48.4986 0.329688 47.7037 0 46.875 0H28.125C27.0416 0 26.0361 0.561523 25.467 1.48164C24.8979 2.40332 24.8459 3.55371 25.3297 4.52266L34.375 22.6135V29.6705C20.4734 39.8979 9.375 60.4863 9.375 76.4938C9.375 100 30.0277 100 50 100C69.9723 100 90.625 100 90.625 76.4938C90.625 60.4863 79.5266 39.8979 65.625 29.6705ZM40.625 25H59.375V28.125H40.625V25ZM45.5811 6.25L50.9156 11.5846C52.1363 12.8053 54.1139 12.8053 55.3346 11.5846L60.6689 6.25H66.8182L60.5682 18.75H39.4318L33.1818 6.25H45.5811ZM50 93.75C25.5736 93.75 15.625 92.1891 15.625 76.4938C15.625 63.8504 24.7742 44.1406 38.4781 34.375H61.5219C75.2258 44.1406 84.375 63.8504 84.375 76.4938C84.375 92.1891 74.4264 93.75 50 93.75Z" fill="white"/>
<path d="M52.4456 69.3266C57.7913 69.3266 62.1088 65 62.1088 59.6633C62.1088 54.3349 57.7739 50 52.4456 50H42.7177C42.2161 50 41.8095 50.4066 41.8095 50.9082V63.619H39.7993C39.2977 63.619 38.8911 64.0256 38.8911 64.5272V68.4184C38.8911 68.9199 39.2977 69.3266 39.7993 69.3266H41.8095V71.4013H39.7993C39.2977 71.4013 38.8911 71.808 38.8911 72.3095V76.2007C38.8911 76.7023 39.2977 77.1089 39.7993 77.1089H41.8095V80.0918C41.8095 80.5934 42.2161 81 42.7177 81H46.6088C47.1104 81 47.517 80.5934 47.517 80.0918V77.1088H53.4183C53.9199 77.1088 54.3265 76.7022 54.3265 76.2006V72.3095C54.3265 71.8079 53.9199 71.4013 53.4183 71.4013H47.517V69.3266H52.4456ZM47.517 55.7076H52.4455C54.6266 55.7076 56.4012 57.4821 56.4012 59.6633C56.4012 61.8444 54.6266 63.619 52.4455 63.619H47.517V55.7076Z" fill="white"/>
</svg>
