<svg width="100" height="100" viewBox="0 0 100 100" fill="none" xmlns="http://www.w3.org/2000/svg">
<path d="M71.875 47.0703H58.6975C57.7828 44.3621 55.6379 42.2172 52.9297 41.3026V21.875C52.9297 20.2571 51.618 18.9453 50 18.9453C48.382 18.9453 47.0703 20.2571 47.0703 21.875V41.3026C43.4414 42.5283 40.8203 45.9627 40.8203 50C40.8203 55.0617 44.9383 59.1797 50 59.1797C54.0373 59.1797 57.4717 56.5586 58.6975 52.9297H71.875C73.493 52.9297 74.8047 51.618 74.8047 50C74.8047 48.3821 73.493 47.0703 71.875 47.0703ZM50 53.3203C48.1691 53.3203 46.6797 51.8309 46.6797 50C46.6797 48.1692 48.1691 46.6797 50 46.6797C51.8309 46.6797 53.3203 48.1692 53.3203 50C53.3203 51.8309 51.8309 53.3203 50 53.3203Z" fill="white"/>
<path d="M85.3555 14.6447C75.9115 5.20098 63.3555 0 50 0C36.6445 0 24.0885 5.20098 14.6447 14.6445C5.20098 24.0885 0 36.6445 0 50C0 63.3555 5.20098 75.9115 14.6445 85.3553C24.0885 94.799 36.6445 100 50 100C63.3555 100 75.9115 94.799 85.3553 85.3555C94.799 75.9115 100 63.3555 100 50C100 36.6445 94.799 24.0885 85.3555 14.6447ZM83.2143 79.0713L80.7977 76.6547C79.6537 75.5105 77.7986 75.5105 76.6545 76.6547C75.5104 77.7988 75.5104 79.6537 76.6545 80.7979L79.0711 83.2145C71.7533 89.6379 62.6461 93.4102 52.9295 94.0426V90.625C52.9295 89.007 51.6178 87.6953 49.9998 87.6953C48.3818 87.6953 47.0701 89.007 47.0701 90.625V94.0426C37.3535 93.4102 28.2465 89.6377 20.9285 83.2145L23.3451 80.7979C24.4893 79.6537 24.4893 77.7988 23.3451 76.6547C22.2012 75.5105 20.3461 75.5105 19.202 76.6547L16.7854 79.0713C10.3623 71.7533 6.58984 62.6463 5.95742 52.9297H9.375C10.993 52.9297 12.3047 51.618 12.3047 50C12.3047 48.382 10.993 47.0703 9.375 47.0703H5.95742C6.59004 37.3537 10.3623 28.2467 16.7857 20.9287L19.2023 23.3453C19.7744 23.9174 20.5242 24.2035 21.2738 24.2035C22.0234 24.2035 22.7734 23.9176 23.3453 23.3453C24.4895 22.2012 24.4895 20.3463 23.3453 19.2021L20.9287 16.7855C28.2467 10.3623 37.3537 6.58984 47.0703 5.95742V9.375C47.0703 10.993 48.382 12.3047 50 12.3047C51.618 12.3047 52.9297 10.993 52.9297 9.375V5.95742C62.6463 6.58984 71.7533 10.3623 79.0713 16.7855L76.6547 19.2021C75.5105 20.3463 75.5105 22.2012 76.6547 23.3453C77.2268 23.9174 77.9766 24.2035 78.7262 24.2035C79.4758 24.2035 80.2258 23.9176 80.7977 23.3453L83.2143 20.9287C89.6375 28.2465 93.41 37.3537 94.0426 47.0703H90.625C89.007 47.0703 87.6953 48.382 87.6953 50C87.6953 51.618 89.007 52.9297 90.625 52.9297H94.0426C93.41 62.6463 89.6377 71.7533 83.2143 79.0713Z" fill="white"/>
</svg>
