<svg width="100" height="100" viewBox="0 0 100 100" fill="none" xmlns="http://www.w3.org/2000/svg">
<path d="M50 31.4453C39.7689 31.4453 31.4453 39.7689 31.4453 50C31.4453 60.231 39.7689 68.5546 50 68.5546C60.231 68.5546 68.5546 60.231 68.5546 50C68.5546 39.7689 60.231 31.4453 50 31.4453ZM50 62.6953C42.9998 62.6953 37.3047 57.0002 37.3047 50C37.3047 42.9998 42.9998 37.3047 50 37.3047C57.0001 37.3047 62.6953 42.9998 62.6953 50C62.6953 57.0002 57.0001 62.6953 50 62.6953Z" fill="white"/>
<path d="M97.6447 40.7169L85.5916 38.3068C85.003 36.5156 84.2821 34.7738 83.436 33.1001L90.2541 22.8777C91.0289 21.7162 90.8764 20.1693 89.8897 19.1814L80.8225 10.1097C79.8344 9.12186 78.2866 8.96912 77.1251 9.74412L66.8999 16.5654C65.2325 15.7211 63.4909 14.9992 61.6932 14.4072L59.2827 2.35488C59.0091 0.98574 57.8067 0 56.41 0H43.5898C42.1933 0 40.9907 0.98574 40.7169 2.35507L38.3066 14.4074C36.5089 14.9994 34.7673 15.7211 33.0999 16.5656L22.875 9.74432C21.7129 8.96912 20.165 9.12205 19.1775 10.1099L10.1105 19.1814C9.12381 20.1691 8.97127 21.716 9.74608 22.8777L16.5642 33.1001C15.7181 34.774 14.9972 36.5156 14.4086 38.3068L2.35546 40.7169C0.98574 40.9907 0 42.1933 0 43.5898V56.41C0 57.8065 0.98574 59.0091 2.35527 59.2829L14.4084 61.693C14.997 63.4843 15.7179 65.2259 16.564 66.8997L9.74588 77.1221C8.97108 78.2836 9.12362 79.8305 10.1103 80.8184L19.1775 89.8901C20.1654 90.8778 21.713 91.0307 22.875 90.2557L33.1001 83.4344C34.7675 84.2787 36.5091 85.0006 38.3068 85.5926L40.7173 97.6449C40.9911 99.0143 42.1937 100 43.5902 100H56.4102C57.8067 100 59.0093 99.0143 59.2831 97.6449L61.6936 85.5926C63.4913 85.0006 65.2329 84.2789 66.9003 83.4344L77.1254 90.2557C78.2874 91.0309 79.8352 90.8778 80.8229 89.8901L89.8901 80.8184C90.8768 79.8307 91.0293 78.2838 90.2545 77.1221L83.4364 66.8997C84.2825 65.2259 85.0033 63.4843 85.592 61.693L97.6451 59.2829C99.0141 59.0091 99.9998 57.8065 99.9998 56.41V43.5898C99.9998 42.1933 99.0141 40.9907 97.6447 40.7169ZM94.1404 54.0081L82.7209 56.2915C81.6356 56.5085 80.7653 57.3186 80.4709 58.3856C79.7723 60.9204 78.7651 63.3522 77.4776 65.6137C76.9292 66.5768 76.9711 67.7669 77.5864 68.6889L84.0471 78.3756L78.3782 84.0477L68.688 77.5833C67.7645 76.9672 66.5721 76.926 65.6085 77.4768C63.3651 78.7588 60.9335 79.7676 58.3819 80.4748C57.3167 80.77 56.5083 81.6397 56.2915 82.7235L54.0083 94.1404H45.9917L43.7085 82.7237C43.4917 81.6397 42.6833 80.7702 41.6181 80.475C39.0665 79.7678 36.6349 78.7592 34.3915 77.477C33.4275 76.9262 32.2355 76.9676 31.312 77.5834L21.6218 84.0479L15.9529 78.3758L22.4136 68.6891C23.0287 67.7673 23.0707 66.577 22.5224 65.6139C21.2349 63.3524 20.2277 60.9204 19.5291 58.3858C19.2347 57.3188 18.3644 56.5087 17.2791 56.2917L5.85936 54.0081V45.9917L17.2789 43.7083C18.3642 43.4913 19.2345 42.6812 19.5289 41.6142C20.2275 39.0794 21.2347 36.6476 22.5222 34.3861C23.0707 33.423 23.0287 32.2329 22.4134 31.3109L15.9527 21.6242L21.6216 15.9521L31.3119 22.4166C32.2353 23.0326 33.4277 23.0738 34.3913 22.523C36.6347 21.241 39.0663 20.2322 41.6179 19.525C42.6831 19.2298 43.4915 18.3601 43.7083 17.2763L45.9919 5.85936H54.0085L56.2917 17.2761C56.5085 18.3601 57.3169 19.2297 58.3821 19.5248C60.9337 20.232 63.3653 21.2406 65.6087 22.5228C66.5727 23.0736 67.7647 23.0324 68.6881 22.4164L78.3784 15.9519L84.0473 21.624L77.5866 31.3107C76.9715 32.2326 76.9295 33.4228 77.4778 34.3859C78.7653 36.6474 79.7725 39.0792 80.4711 41.614C80.7655 42.681 81.6358 43.4911 82.7211 43.7081L94.1404 45.9917V54.0081Z" fill="white"/>
</svg>
