<svg width="100" height="100" viewBox="0 0 100 100" fill="none" xmlns="http://www.w3.org/2000/svg">
<mask id="path-1-outside-1" maskUnits="userSpaceOnUse" x="0.5625" y="0.561981" width="99" height="99" fill="black">
<rect fill="white" x="0.5625" y="0.561981" width="99" height="99"/>
<path d="M96.875 51.5625H70.3125V25C70.3121 24.7428 70.2485 24.4896 70.1272 24.2628C70.006 24.036 69.8308 23.8424 69.6172 23.6992L36.8047 1.8242C36.5478 1.65321 36.2461 1.56198 35.9375 1.56198C35.6289 1.56198 35.3272 1.65321 35.0703 1.8242L2.25781 23.6992C2.04417 23.8424 1.86902 24.036 1.74777 24.2628C1.62652 24.4896 1.5629 24.7428 1.5625 25V71.875C1.5625 72.2894 1.72712 72.6868 2.02015 72.9798C2.31317 73.2729 2.7106 73.4375 3.125 73.4375H37.9355L36.0176 79.1933C35.9647 79.3527 35.9377 79.5196 35.9375 79.6875V92.1875C35.9375 92.6019 36.1021 92.9993 36.3951 93.2923C36.6882 93.5854 37.0856 93.75 37.5 93.75H42.1875C42.2528 93.7494 42.318 93.7448 42.3828 93.7363C42.727 95.0807 43.5089 96.2723 44.6052 97.1232C45.7014 97.9742 47.0497 98.4361 48.4375 98.4361C49.8253 98.4361 51.1736 97.9742 52.2698 97.1232C53.3661 96.2723 54.148 95.0807 54.4922 93.7363C54.557 93.7448 54.6222 93.7494 54.6875 93.75H79.6875C79.7528 93.7494 79.818 93.7448 79.8828 93.7363C80.227 95.0807 81.0089 96.2723 82.1052 97.1232C83.2014 97.9742 84.5497 98.4361 85.9375 98.4361C87.3253 98.4361 88.6736 97.9742 89.7698 97.1232C90.8661 96.2723 91.648 95.0807 91.9922 93.7363C92.057 93.7448 92.1222 93.7494 92.1875 93.75H96.875C97.2894 93.75 97.6868 93.5854 97.9799 93.2923C98.2729 92.9993 98.4375 92.6019 98.4375 92.1875V53.125C98.4375 52.7106 98.2729 52.3131 97.9799 52.0201C97.6868 51.7271 97.2894 51.5625 96.875 51.5625ZM14.0625 70.3125H4.6875V25.8359L35.9375 5.00389L67.1875 25.8359V51.5625H62.5C62.0856 51.5625 61.6882 51.7271 61.3951 52.0201C61.1021 52.3131 60.9375 52.7106 60.9375 53.125V59.375H57.8125V50H59.375C59.7894 50 60.1868 49.8354 60.4799 49.5423C60.7729 49.2493 60.9375 48.8519 60.9375 48.4375V43.75C60.9375 43.3356 60.7729 42.9382 60.4799 42.6451C60.1868 42.3521 59.7894 42.1875 59.375 42.1875H12.5C12.0856 42.1875 11.6882 42.3521 11.3951 42.6451C11.1021 42.9382 10.9375 43.3356 10.9375 43.75V48.4375C10.9375 48.8519 11.1021 49.2493 11.3951 49.5423C11.6882 49.8354 12.0856 50 12.5 50H14.0625V70.3125ZM56.25 76.5625C56.6644 76.5625 57.0618 76.3979 57.3549 76.1048C57.6479 75.8118 57.8125 75.4144 57.8125 75V65.625C57.8125 65.2106 57.6479 64.8131 57.3549 64.5201C57.0618 64.2271 56.6644 64.0625 56.25 64.0625H44.3555L45 61.5H61.0605L60.9375 81.25H39.0625V79.9414L40.1895 76.5625H56.25ZM41.2305 73.4375L43.3145 67.1875H54.6875V73.4375H41.2305ZM14.0625 48V43.75H57.8125V48H14.0625ZM17.1875 70.3125V50H54.6875V59.375H43.75C43.422 59.375 43.1024 59.4781 42.8363 59.6699C42.5703 59.8616 42.3713 60.1322 42.2676 60.4433L38.9785 70.3125H17.1875ZM48.4375 95.3125C47.8194 95.3125 47.2152 95.1292 46.7013 94.7858C46.1874 94.4424 45.7869 93.9544 45.5504 93.3834C45.3139 92.8123 45.252 92.184 45.3725 91.5778C45.4931 90.9716 45.7908 90.4148 46.2278 89.9778C46.6648 89.5407 47.2217 89.2431 47.8278 89.1225C48.434 89.0019 49.0624 89.0638 49.6334 89.3004C50.2044 89.5369 50.6925 89.9374 51.0358 90.4513C51.3792 90.9652 51.5625 91.5694 51.5625 92.1875C51.5614 93.0159 51.2318 93.8102 50.646 94.396C50.0602 94.9818 49.266 95.3114 48.4375 95.3125ZM85.9375 95.3125C85.3194 95.3125 84.7152 95.1292 84.2013 94.7858C83.6874 94.4424 83.2869 93.9544 83.0504 93.3834C82.8139 92.8123 82.752 92.184 82.8725 91.5778C82.9931 90.9716 83.2907 90.4148 83.7278 89.9778C84.1648 89.5407 84.7216 89.2431 85.3278 89.1225C85.934 89.0019 86.5624 89.0638 87.1334 89.3004C87.7044 89.5369 88.1925 89.9374 88.5358 90.4513C88.8792 90.9652 89.0625 91.5694 89.0625 92.1875C89.0614 93.0159 88.7318 93.8102 88.146 94.396C87.5602 94.9818 86.766 95.3114 85.9375 95.3125ZM95.3125 90.625H92.1875C92.1222 90.6256 92.057 90.6301 91.9922 90.6386C91.648 89.2943 90.8661 88.1026 89.7698 87.2517C88.6736 86.4008 87.3253 85.9389 85.9375 85.9389C84.5497 85.9389 83.2014 86.4008 82.1052 87.2517C81.0089 88.1026 80.227 89.2943 79.8828 90.6386C79.818 90.6301 79.7528 90.6256 79.6875 90.625H54.6875C54.6222 90.6256 54.557 90.6301 54.4922 90.6386C54.148 89.2943 53.3661 88.1026 52.2698 87.2517C51.1736 86.4008 49.8253 85.9389 48.4375 85.9389C47.0497 85.9389 45.7014 86.4008 44.6052 87.2517C43.5089 88.1026 42.727 89.2943 42.3828 90.6386C42.318 90.6301 42.2528 90.6256 42.1875 90.625H39.0625V84.375H95.3125V90.625ZM95.3125 81.25H64.0625V54.6875H95.3125V81.25Z"/>
</mask>
<path d="M96.875 51.5625H70.3125V25C70.3121 24.7428 70.2485 24.4896 70.1272 24.2628C70.006 24.036 69.8308 23.8424 69.6172 23.6992L36.8047 1.8242C36.5478 1.65321 36.2461 1.56198 35.9375 1.56198C35.6289 1.56198 35.3272 1.65321 35.0703 1.8242L2.25781 23.6992C2.04417 23.8424 1.86902 24.036 1.74777 24.2628C1.62652 24.4896 1.5629 24.7428 1.5625 25V71.875C1.5625 72.2894 1.72712 72.6868 2.02015 72.9798C2.31317 73.2729 2.7106 73.4375 3.125 73.4375H37.9355L36.0176 79.1933C35.9647 79.3527 35.9377 79.5196 35.9375 79.6875V92.1875C35.9375 92.6019 36.1021 92.9993 36.3951 93.2923C36.6882 93.5854 37.0856 93.75 37.5 93.75H42.1875C42.2528 93.7494 42.318 93.7448 42.3828 93.7363C42.727 95.0807 43.5089 96.2723 44.6052 97.1232C45.7014 97.9742 47.0497 98.4361 48.4375 98.4361C49.8253 98.4361 51.1736 97.9742 52.2698 97.1232C53.3661 96.2723 54.148 95.0807 54.4922 93.7363C54.557 93.7448 54.6222 93.7494 54.6875 93.75H79.6875C79.7528 93.7494 79.818 93.7448 79.8828 93.7363C80.227 95.0807 81.0089 96.2723 82.1052 97.1232C83.2014 97.9742 84.5497 98.4361 85.9375 98.4361C87.3253 98.4361 88.6736 97.9742 89.7698 97.1232C90.8661 96.2723 91.648 95.0807 91.9922 93.7363C92.057 93.7448 92.1222 93.7494 92.1875 93.75H96.875C97.2894 93.75 97.6868 93.5854 97.9799 93.2923C98.2729 92.9993 98.4375 92.6019 98.4375 92.1875V53.125C98.4375 52.7106 98.2729 52.3131 97.9799 52.0201C97.6868 51.7271 97.2894 51.5625 96.875 51.5625ZM14.0625 70.3125H4.6875V25.8359L35.9375 5.00389L67.1875 25.8359V51.5625H62.5C62.0856 51.5625 61.6882 51.7271 61.3951 52.0201C61.1021 52.3131 60.9375 52.7106 60.9375 53.125V59.375H57.8125V50H59.375C59.7894 50 60.1868 49.8354 60.4799 49.5423C60.7729 49.2493 60.9375 48.8519 60.9375 48.4375V43.75C60.9375 43.3356 60.7729 42.9382 60.4799 42.6451C60.1868 42.3521 59.7894 42.1875 59.375 42.1875H12.5C12.0856 42.1875 11.6882 42.3521 11.3951 42.6451C11.1021 42.9382 10.9375 43.3356 10.9375 43.75V48.4375C10.9375 48.8519 11.1021 49.2493 11.3951 49.5423C11.6882 49.8354 12.0856 50 12.5 50H14.0625V70.3125ZM56.25 76.5625C56.6644 76.5625 57.0618 76.3979 57.3549 76.1048C57.6479 75.8118 57.8125 75.4144 57.8125 75V65.625C57.8125 65.2106 57.6479 64.8131 57.3549 64.5201C57.0618 64.2271 56.6644 64.0625 56.25 64.0625H44.3555L45 61.5H61.0605L60.9375 81.25H39.0625V79.9414L40.1895 76.5625H56.25ZM41.2305 73.4375L43.3145 67.1875H54.6875V73.4375H41.2305ZM14.0625 48V43.75H57.8125V48H14.0625ZM17.1875 70.3125V50H54.6875V59.375H43.75C43.422 59.375 43.1024 59.4781 42.8363 59.6699C42.5703 59.8616 42.3713 60.1322 42.2676 60.4433L38.9785 70.3125H17.1875ZM48.4375 95.3125C47.8194 95.3125 47.2152 95.1292 46.7013 94.7858C46.1874 94.4424 45.7869 93.9544 45.5504 93.3834C45.3139 92.8123 45.252 92.184 45.3725 91.5778C45.4931 90.9716 45.7908 90.4148 46.2278 89.9778C46.6648 89.5407 47.2217 89.2431 47.8278 89.1225C48.434 89.0019 49.0624 89.0638 49.6334 89.3004C50.2044 89.5369 50.6925 89.9374 51.0358 90.4513C51.3792 90.9652 51.5625 91.5694 51.5625 92.1875C51.5614 93.0159 51.2318 93.8102 50.646 94.396C50.0602 94.9818 49.266 95.3114 48.4375 95.3125ZM85.9375 95.3125C85.3194 95.3125 84.7152 95.1292 84.2013 94.7858C83.6874 94.4424 83.2869 93.9544 83.0504 93.3834C82.8139 92.8123 82.752 92.184 82.8725 91.5778C82.9931 90.9716 83.2907 90.4148 83.7278 89.9778C84.1648 89.5407 84.7216 89.2431 85.3278 89.1225C85.934 89.0019 86.5624 89.0638 87.1334 89.3004C87.7044 89.5369 88.1925 89.9374 88.5358 90.4513C88.8792 90.9652 89.0625 91.5694 89.0625 92.1875C89.0614 93.0159 88.7318 93.8102 88.146 94.396C87.5602 94.9818 86.766 95.3114 85.9375 95.3125ZM95.3125 90.625H92.1875C92.1222 90.6256 92.057 90.6301 91.9922 90.6386C91.648 89.2943 90.8661 88.1026 89.7698 87.2517C88.6736 86.4008 87.3253 85.9389 85.9375 85.9389C84.5497 85.9389 83.2014 86.4008 82.1052 87.2517C81.0089 88.1026 80.227 89.2943 79.8828 90.6386C79.818 90.6301 79.7528 90.6256 79.6875 90.625H54.6875C54.6222 90.6256 54.557 90.6301 54.4922 90.6386C54.148 89.2943 53.3661 88.1026 52.2698 87.2517C51.1736 86.4008 49.8253 85.9389 48.4375 85.9389C47.0497 85.9389 45.7014 86.4008 44.6052 87.2517C43.5089 88.1026 42.727 89.2943 42.3828 90.6386C42.318 90.6301 42.2528 90.6256 42.1875 90.625H39.0625V84.375H95.3125V90.625ZM95.3125 81.25H64.0625V54.6875H95.3125V81.25Z" fill="white"/>
<path d="M96.875 51.5625H70.3125V25C70.3121 24.7428 70.2485 24.4896 70.1272 24.2628C70.006 24.036 69.8308 23.8424 69.6172 23.6992L36.8047 1.8242C36.5478 1.65321 36.2461 1.56198 35.9375 1.56198C35.6289 1.56198 35.3272 1.65321 35.0703 1.8242L2.25781 23.6992C2.04417 23.8424 1.86902 24.036 1.74777 24.2628C1.62652 24.4896 1.5629 24.7428 1.5625 25V71.875C1.5625 72.2894 1.72712 72.6868 2.02015 72.9798C2.31317 73.2729 2.7106 73.4375 3.125 73.4375H37.9355L36.0176 79.1933C35.9647 79.3527 35.9377 79.5196 35.9375 79.6875V92.1875C35.9375 92.6019 36.1021 92.9993 36.3951 93.2923C36.6882 93.5854 37.0856 93.75 37.5 93.75H42.1875C42.2528 93.7494 42.318 93.7448 42.3828 93.7363C42.727 95.0807 43.5089 96.2723 44.6052 97.1232C45.7014 97.9742 47.0497 98.4361 48.4375 98.4361C49.8253 98.4361 51.1736 97.9742 52.2698 97.1232C53.3661 96.2723 54.148 95.0807 54.4922 93.7363C54.557 93.7448 54.6222 93.7494 54.6875 93.75H79.6875C79.7528 93.7494 79.818 93.7448 79.8828 93.7363C80.227 95.0807 81.0089 96.2723 82.1052 97.1232C83.2014 97.9742 84.5497 98.4361 85.9375 98.4361C87.3253 98.4361 88.6736 97.9742 89.7698 97.1232C90.8661 96.2723 91.648 95.0807 91.9922 93.7363C92.057 93.7448 92.1222 93.7494 92.1875 93.75H96.875C97.2894 93.75 97.6868 93.5854 97.9799 93.2923C98.2729 92.9993 98.4375 92.6019 98.4375 92.1875V53.125C98.4375 52.7106 98.2729 52.3131 97.9799 52.0201C97.6868 51.7271 97.2894 51.5625 96.875 51.5625ZM14.0625 70.3125H4.6875V25.8359L35.9375 5.00389L67.1875 25.8359V51.5625H62.5C62.0856 51.5625 61.6882 51.7271 61.3951 52.0201C61.1021 52.3131 60.9375 52.7106 60.9375 53.125V59.375H57.8125V50H59.375C59.7894 50 60.1868 49.8354 60.4799 49.5423C60.7729 49.2493 60.9375 48.8519 60.9375 48.4375V43.75C60.9375 43.3356 60.7729 42.9382 60.4799 42.6451C60.1868 42.3521 59.7894 42.1875 59.375 42.1875H12.5C12.0856 42.1875 11.6882 42.3521 11.3951 42.6451C11.1021 42.9382 10.9375 43.3356 10.9375 43.75V48.4375C10.9375 48.8519 11.1021 49.2493 11.3951 49.5423C11.6882 49.8354 12.0856 50 12.5 50H14.0625V70.3125ZM56.25 76.5625C56.6644 76.5625 57.0618 76.3979 57.3549 76.1048C57.6479 75.8118 57.8125 75.4144 57.8125 75V65.625C57.8125 65.2106 57.6479 64.8131 57.3549 64.5201C57.0618 64.2271 56.6644 64.0625 56.25 64.0625H44.3555L45 61.5H61.0605L60.9375 81.25H39.0625V79.9414L40.1895 76.5625H56.25ZM41.2305 73.4375L43.3145 67.1875H54.6875V73.4375H41.2305ZM14.0625 48V43.75H57.8125V48H14.0625ZM17.1875 70.3125V50H54.6875V59.375H43.75C43.422 59.375 43.1024 59.4781 42.8363 59.6699C42.5703 59.8616 42.3713 60.1322 42.2676 60.4433L38.9785 70.3125H17.1875ZM48.4375 95.3125C47.8194 95.3125 47.2152 95.1292 46.7013 94.7858C46.1874 94.4424 45.7869 93.9544 45.5504 93.3834C45.3139 92.8123 45.252 92.184 45.3725 91.5778C45.4931 90.9716 45.7908 90.4148 46.2278 89.9778C46.6648 89.5407 47.2217 89.2431 47.8278 89.1225C48.434 89.0019 49.0624 89.0638 49.6334 89.3004C50.2044 89.5369 50.6925 89.9374 51.0358 90.4513C51.3792 90.9652 51.5625 91.5694 51.5625 92.1875C51.5614 93.0159 51.2318 93.8102 50.646 94.396C50.0602 94.9818 49.266 95.3114 48.4375 95.3125ZM85.9375 95.3125C85.3194 95.3125 84.7152 95.1292 84.2013 94.7858C83.6874 94.4424 83.2869 93.9544 83.0504 93.3834C82.8139 92.8123 82.752 92.184 82.8725 91.5778C82.9931 90.9716 83.2907 90.4148 83.7278 89.9778C84.1648 89.5407 84.7216 89.2431 85.3278 89.1225C85.934 89.0019 86.5624 89.0638 87.1334 89.3004C87.7044 89.5369 88.1925 89.9374 88.5358 90.4513C88.8792 90.9652 89.0625 91.5694 89.0625 92.1875C89.0614 93.0159 88.7318 93.8102 88.146 94.396C87.5602 94.9818 86.766 95.3114 85.9375 95.3125ZM95.3125 90.625H92.1875C92.1222 90.6256 92.057 90.6301 91.9922 90.6386C91.648 89.2943 90.8661 88.1026 89.7698 87.2517C88.6736 86.4008 87.3253 85.9389 85.9375 85.9389C84.5497 85.9389 83.2014 86.4008 82.1052 87.2517C81.0089 88.1026 80.227 89.2943 79.8828 90.6386C79.818 90.6301 79.7528 90.6256 79.6875 90.625H54.6875C54.6222 90.6256 54.557 90.6301 54.4922 90.6386C54.148 89.2943 53.3661 88.1026 52.2698 87.2517C51.1736 86.4008 49.8253 85.9389 48.4375 85.9389C47.0497 85.9389 45.7014 86.4008 44.6052 87.2517C43.5089 88.1026 42.727 89.2943 42.3828 90.6386C42.318 90.6301 42.2528 90.6256 42.1875 90.625H39.0625V84.375H95.3125V90.625ZM95.3125 81.25H64.0625V54.6875H95.3125V81.25Z" stroke="white" stroke-width="1.4" mask="url(#path-1-outside-1)"/>
<path d="M23.4375 39.4125H48.4375C48.9447 39.4125 49.4312 39.211 49.7898 38.8523C50.1485 38.4937 50.35 38.0072 50.35 37.5V29.6875C50.35 29.1803 50.1485 28.6938 49.7898 28.3352C49.4312 27.9765 48.9447 27.775 48.4375 27.775H23.4375C22.9303 27.775 22.4438 27.9765 22.0852 28.3352C21.7265 28.6938 21.525 29.1803 21.525 29.6875V37.5C21.525 38.0072 21.7265 38.4937 22.0852 38.8523C22.4438 39.211 22.9303 39.4125 23.4375 39.4125ZM34.65 35.5875H31.475V31.6H34.65V35.5875ZM37.6233 31.6H40.9V35.5875H37.6233V31.6ZM47.15 31.6V35.5931L43.975 35.6443V31.6H47.15ZM25.1823 31.6H28.4V35.5875H25.1823V31.6Z" fill="white" stroke="white" stroke-width="0.7"/>
</svg>
