<svg width="100" height="100" viewBox="0 0 100 100" fill="none" xmlns="http://www.w3.org/2000/svg">
<path d="M18.7947 88.0628L18.7957 88.0715C19.3125 92.7811 24.4093 96.5 29.9891 96.5H70.0107C75.7005 96.5 80.8147 92.7869 81.2053 88.0603C81.2054 88.0595 81.2054 88.0587 81.2055 88.0579L88.0917 13.3644L88.0954 13.3242C88.2805 11.3165 88.4242 9.75703 88.368 8.53842C88.3108 7.29729 88.0441 6.32582 87.3381 5.55172C86.6321 4.77762 85.6892 4.42288 84.4586 4.25195C83.2503 4.08411 81.6842 4.08412 79.6682 4.08412L79.6276 4.08412L20.3723 4.08408L20.3317 4.08408C18.3156 4.08407 16.7496 4.08407 15.5413 4.2519C14.3106 4.42284 13.3677 4.77757 12.6617 5.55167C11.9557 6.32577 11.689 7.29725 11.6318 8.53837C11.5756 9.75696 11.7194 11.3164 11.9045 13.324L11.9082 13.3644L18.7947 88.0628ZM70.2511 92.1899H30.1093C27.2929 92.1899 24.867 90.4861 24.2397 88.4196H76.119C75.8304 89.3512 75.1613 90.2144 74.2384 90.8862C73.1333 91.6908 71.7031 92.1899 70.2511 92.1899ZM16 7.90741H84.2411L76.649 84.0122H23.7107L16 7.90741Z" fill="white" stroke="white"/>
<path d="M50.7992 33.2125L50.7967 33.2118C47.9787 32.4178 44.6866 32.0248 41.1665 32.0248C32.874 32.0248 25.2444 34.2387 24.1996 34.5419C24.1445 34.5579 24.1076 34.5686 24.0901 34.5733L24.0731 34.5779L24.0564 34.5837C23.103 34.9147 22.2395 35.7594 22.402 36.8697L26.487 78.9139L26.488 78.9237L26.4893 78.9335C26.6501 80.1057 27.7484 80.9232 29.0278 80.9232H71.5733C72.2144 80.9232 72.8316 80.7224 73.2992 80.3739C73.7616 80.0293 74.1081 79.5123 74.1163 78.888L77.7202 35.3894L77.722 35.3688V35.3481C77.722 34.6411 77.4275 33.8555 76.6273 33.452C75.9176 33.0022 75.057 32.8794 74.3132 33.117C66.4695 35.3294 58.1549 35.3268 50.7992 33.2125ZM72.3424 38.1117L69.1898 76.4185H31.4068L27.8819 38.1571C30.5501 37.4642 35.8708 36.3349 41.2867 36.3349C44.2458 36.3349 46.9655 36.7181 49.207 37.2907C56.4205 39.3965 64.5402 39.6368 72.3424 38.1117Z" fill="white" stroke="white"/>
<path d="M63.632 58.3006C62.0347 59.6706 60.2245 61.2234 56.7229 61.2234C53.2211 61.2234 51.4108 59.6706 49.8135 58.3006C48.303 57.005 46.9984 55.886 44.2774 55.886C41.5564 55.886 40.2519 57.005 38.7414 58.3006C38.2992 58.6798 37.6334 58.6288 37.2542 58.1867C36.875 57.7445 36.9259 57.0787 37.3681 56.6995C38.9653 55.3295 40.7757 53.7766 44.2774 53.7766C47.7792 53.7766 49.5895 55.3295 51.1868 56.6995C52.6973 57.9951 54.0019 59.114 56.7229 59.114C59.4438 59.114 60.7482 57.9951 62.2586 56.6995C62.7007 56.3203 63.3665 56.3712 63.7458 56.8134C64.1251 57.2555 64.0741 57.9214 63.632 58.3006Z" fill="white"/>
<path d="M63.632 52.5317C62.0348 53.9018 60.2245 55.4546 56.7229 55.4546C53.2211 55.4546 51.4108 53.9018 49.8135 52.5317C48.303 51.2362 46.9985 50.1172 44.2774 50.1172C41.5565 50.1172 40.252 51.2361 38.7414 52.5317C38.2992 52.9111 37.6334 52.86 37.2542 52.4178C36.875 51.9757 36.9261 51.3097 37.3682 50.9306C38.9655 49.5605 40.7758 48.0078 44.2774 48.0078C47.7792 48.0078 49.5895 49.5606 51.1868 50.9307C52.6973 52.2262 54.0019 53.3452 56.7229 53.3452C59.4437 53.3452 60.7482 52.2263 62.2586 50.9307C62.7007 50.5514 63.3666 50.6023 63.7458 51.0445C64.1251 51.4866 64.0741 52.1525 63.632 52.5317Z" fill="white"/>
<path d="M37.3681 62.4683C38.9654 61.0983 40.7758 59.5454 44.2775 59.5454C47.7792 59.5454 49.5896 61.0982 51.1868 62.4683C52.6974 63.7638 54.0019 64.8828 56.7229 64.8828C59.4437 64.8828 60.7482 63.7639 62.2586 62.4684L62.2587 62.4683C62.7008 62.0892 63.3666 62.1401 63.7459 62.5822C64.1251 63.0243 64.0741 63.6902 63.6319 64.0694C62.0347 65.4394 60.2244 66.9922 56.7229 66.9922C53.2212 66.9922 51.4108 65.4394 49.8135 64.0693C48.303 62.7738 46.9985 61.6548 44.2775 61.6548C41.5564 61.6548 40.2519 62.7738 38.7414 64.0693C38.2993 64.4485 37.6334 64.3976 37.2542 63.9555C36.875 63.5133 36.9259 62.8475 37.3681 62.4683Z" fill="white"/>
</svg>
