<svg width="34" height="34" viewBox="0 0 34 34" fill="none" xmlns="http://www.w3.org/2000/svg">
<g clip-path="url(#clip0)">
<path d="M25.7725 16.0676V22.5956H29.0888C29.5232 22.5956 29.9058 22.3092 30.0299 21.8912L31.7574 16.0676H25.7725Z" fill="white"/>
<path d="M23.8092 7.56787H17.1978V14.096H23.8092V7.56787Z" fill="white"/>
<path d="M33.749 7.96454C33.5636 7.71497 33.2718 7.56796 32.9618 7.56796H25.7725V14.096H32.3422L33.9028 8.83511C33.9913 8.53686 33.9342 8.21404 33.749 7.96454Z" fill="white"/>
<path d="M23.8092 16.0677H17.1978V22.5958H23.8092V16.0677Z" fill="white"/>
<path d="M7.97222 7.56796L6.65089 3.11344C6.52693 2.69554 6.14416 2.40906 5.70981 2.40906H1.78247C1.2402 2.40906 0.800537 2.85042 0.800537 3.39485C0.800537 3.93929 1.2402 4.38071 1.78247 4.38071H4.97774L6.29279 8.81385C6.29674 8.82847 6.30101 8.84297 6.30567 8.85727L7.85971 14.096H15.2339V7.56796H7.97222Z" fill="white"/>
<path d="M30.998 26.3537H29.7329C29.3069 24.8872 27.9568 23.8124 26.3605 23.8124C24.7642 23.8124 23.4141 24.8872 22.9881 26.3537H17.7783C17.3523 24.8872 16.0022 23.8124 14.4059 23.8124C12.8096 23.8124 11.4595 24.8872 11.0336 26.3537H10.0587C9.02677 26.3537 8.18725 25.5108 8.18725 24.4747C8.18725 23.4386 9.02684 22.5957 10.0587 22.5957H11.113H15.2337V16.0676H8.4445L9.79903 20.6338C7.805 20.7685 6.22339 22.4391 6.22339 24.4747C6.22339 26.598 7.94392 28.3254 10.0587 28.3254H11.0335C11.4595 29.7918 12.8096 30.8667 14.4059 30.8667C16.0021 30.8667 17.3523 29.7918 17.7783 28.3254H22.9881C23.4141 29.7918 24.7642 30.8667 26.3605 30.8667C27.9567 30.8667 29.3068 29.7918 29.7329 28.3254H30.9979C31.5402 28.3254 31.9799 27.8839 31.9799 27.3395C31.9799 26.7951 31.5403 26.3537 30.998 26.3537Z" fill="white"/>
</g>
<defs>
<clipPath id="clip0">
<rect width="33.1432" height="33.2757" fill="white" transform="translate(0.800537)"/>
</clipPath>
</defs>
</svg>
