<svg width="18" height="18" viewBox="0 0 18 18" fill="none" xmlns="http://www.w3.org/2000/svg">
<path fill-rule="evenodd" clip-rule="evenodd" d="M9 18C13.9706 18 18 13.9706 18 9H16C16 12.866 12.866 16 9 16C5.13401 16 2 12.866 2 9C2 5.13401 5.13401 2 9 2C10.1118 2 11.1631 2.25921 12.0967 2.72049L13.4306 1.1643C12.1226 0.423132 10.6107 0 9 0C4.02944 0 0 4.02944 0 9C0 13.9706 4.02944 18 9 18ZM15.7433 5.66896C16.1128 5.25845 16.0795 4.62616 15.669 4.2567C15.2585 3.88725 14.6262 3.92053 14.2567 4.33104L8.66414 10.545L6.7094 8.57757C6.32014 8.18578 5.68698 8.18372 5.29519 8.57298C4.9034 8.96223 4.90135 9.59539 5.2906 9.98718L7.99065 12.7048C8.1844 12.8998 8.44989 13.0065 8.72471 12.9997C8.99953 12.9929 9.25944 12.8733 9.44334 12.669L15.7433 5.66896Z" fill="#1B7D98"/>
</svg>
