<svg width="30" height="34" viewBox="0 0 30 34" fill="none" xmlns="http://www.w3.org/2000/svg">
<path d="M29.2778 20.1896C29.2713 19.4852 29.2644 18.7565 29.2644 17.9961V14.8467C29.2644 13.1258 27.8642 11.7256 26.1433 11.7256C25.5646 11.7256 25.0223 11.8839 24.5572 12.1594C24.0082 11.2627 23.0195 10.6631 21.8933 10.6631C21.3146 10.6631 20.7723 10.8214 20.3072 11.0969C19.7582 10.2002 18.7695 9.60064 17.6432 9.60064C17.2452 9.60064 16.8647 9.67634 16.5143 9.81281V3.1211C16.5143 1.40011 15.1142 0 13.3932 0C11.6722 0 10.2721 1.40011 10.2721 3.1211V13.7461V18.4605C8.83795 17.6504 7.37834 17.1328 5.25327 17.1328H4.91905C4.91885 17.1328 4.91872 17.1328 4.91852 17.1328C3.80614 17.1332 2.75732 17.5631 1.96503 18.3436C1.17326 19.1237 0.72761 20.1652 0.710212 21.2762C0.693079 22.3663 1.55596 23.3258 2.63367 23.4152C7.92566 23.8536 10.4778 29.2133 12.0026 32.4157C12.1789 32.786 12.3455 33.1357 12.5023 33.4494C12.671 33.7868 13.0159 34 13.3932 34H26.1433C26.5206 34 26.8655 33.7868 27.0342 33.4494C29.359 28.7997 29.3232 25.0001 29.2778 20.1896ZM25.5177 32.0079H14.0155C13.9461 31.8632 13.8745 31.7131 13.8013 31.5592C12.9811 29.8367 11.8578 27.4776 10.1628 25.4724C8.09228 23.0232 5.61446 21.6631 2.79816 21.4297C2.76416 21.4269 2.70134 21.3612 2.70214 21.3075C2.721 20.1041 3.71576 19.125 4.91965 19.125H5.2532C7.33684 19.125 8.51661 19.6611 10.2721 20.7929V22.379C10.2721 22.9291 10.7181 23.375 11.2682 23.375C11.8183 23.375 12.2643 22.9291 12.2643 22.379V20.2466C12.2643 20.2458 12.2643 20.2449 12.2643 20.244V13.7461V3.1211C12.2643 2.49861 12.7707 1.99219 13.3932 1.99219C14.0157 1.99219 14.5221 2.49861 14.5221 3.1211V13.7461V14.8086C14.5221 15.3587 14.9681 15.8047 15.5182 15.8047C16.0683 15.8047 16.5143 15.3587 16.5143 14.8086V13.7461V12.7205C16.515 12.0986 17.0211 11.5929 17.6432 11.5929C18.2657 11.5929 18.7721 12.0993 18.7721 12.7218V13.7461V13.7842V14.8086C18.7721 15.3587 19.2181 15.8047 19.7682 15.8047C20.3183 15.8047 20.7643 15.3587 20.7643 14.8086V13.7842C20.7643 13.1617 21.2707 12.6553 21.8932 12.6553C22.5157 12.6553 23.0221 13.1617 23.0221 13.7842V14.8467C23.0221 15.3969 23.4681 15.8428 24.0182 15.8428C24.5683 15.8428 25.0143 15.3969 25.0143 14.8467C25.0143 14.2242 25.5207 13.7178 26.1432 13.7178C26.7657 13.7178 27.2721 14.2242 27.2721 14.8467V17.9961C27.2721 18.766 27.279 19.4993 27.2857 20.2085C27.3283 24.7214 27.3597 28.0366 25.5177 32.0079Z" fill="white"/>
</svg>
