<svg width="57" height="63" viewBox="0 0 57 63" fill="none" xmlns="http://www.w3.org/2000/svg">
<g filter="url(#filter0_d)">
<path d="M18.3464 18.7257C22.8099 13.4614 27.3693 9.51304 27.7415 9.19186C27.9155 9.04326 28.1895 8.9464 28.4988 8.9464C28.8081 8.9464 29.0821 9.04326 29.2561 9.19186C29.6283 9.51304 34.1877 13.4614 38.6512 18.7257C40.8851 21.3603 43.0828 24.3105 44.7193 27.2888C46.3605 30.2756 47.4081 33.2387 47.4081 35.9122C47.4081 44.7275 39.0145 52.0515 28.4988 52.0515C17.9831 52.0515 9.58947 44.7248 9.58947 35.9122C9.58947 33.2387 10.6371 30.2756 12.2783 27.2888C13.9148 24.3105 16.1125 21.3603 18.3464 18.7257Z" fill="#26C6DA" stroke="white" stroke-width="1.21996"/>
<path d="M26.5005 21.7566H30.2593L36.2252 43.9192H32.5353L31.2594 38.3375H25.5694L24.2245 43.9192H20.5691L26.5005 21.7566ZM30.7421 36.1212L28.3971 26.1344L26.0867 36.1212H30.7421Z" fill="white"/>
</g>
<defs>
<filter id="filter0_d" x="0.236473" y="0.406711" width="56.5246" height="61.8111" filterUnits="userSpaceOnUse" color-interpolation-filters="sRGB">
<feFlood flood-opacity="0" result="BackgroundImageFix"/>
<feColorMatrix in="SourceAlpha" type="matrix" values="0 0 0 0 0 0 0 0 0 0 0 0 0 0 0 0 0 0 127 0"/>
<feOffset dy="0.813304"/>
<feGaussianBlur stdDeviation="4.37151"/>
<feColorMatrix type="matrix" values="0 0 0 0 1 0 0 0 0 1 0 0 0 0 1 0 0 0 1 0"/>
<feBlend mode="normal" in2="BackgroundImageFix" result="effect1_dropShadow"/>
<feBlend mode="normal" in="SourceGraphic" in2="effect1_dropShadow" result="shape"/>
</filter>
</defs>
</svg>
