<svg width="38" height="38" viewBox="0 0 38 38" fill="none" xmlns="http://www.w3.org/2000/svg">
<g opacity="0.8" clip-path="url(#clip0)">
<path d="M35.829 32.545L28.996 25.712C28.483 25.199 27.829 24.924 27.16 24.859C29.22 22.292 30.458 19.04 30.458 15.5C30.458 7.229 23.729 0.5 15.458 0.5C7.18701 0.5 0.458008 7.229 0.458008 15.5C0.458008 23.771 7.18701 30.5 15.458 30.5C18.579 30.5 21.479 29.54 23.882 27.902C23.9 28.646 24.187 29.384 24.754 29.954L31.587 36.787C32.172 37.373 32.941 37.666 33.708 37.666C34.475 37.666 35.244 37.373 35.829 36.787C37.001 35.616 37.001 33.717 35.829 32.545ZM15.458 25.5C9.94401 25.5 5.45801 21.016 5.45801 15.5C5.45801 9.986 9.94401 5.5 15.458 5.5C20.972 5.5 25.458 9.986 25.458 15.5C25.458 21.016 20.972 25.5 15.458 25.5ZM22.334 15.5C22.334 16.604 21.438 17.5 20.334 17.5H17.584V20.25C17.584 21.354 16.688 22.25 15.584 22.25C14.48 22.25 13.584 21.354 13.584 20.25V17.5H10.834C9.73001 17.5 8.83401 16.604 8.83401 15.5C8.83401 14.396 9.73001 13.5 10.834 13.5H13.584V10.75C13.584 9.646 14.48 8.75 15.584 8.75C16.688 8.75 17.584 9.646 17.584 10.75V13.5H20.334C21.438 13.5 22.334 14.395 22.334 15.5Z" fill="#68C0DA"/>
</g>
<defs>
<clipPath id="clip0">
<rect width="37.166" height="37.166" fill="white" transform="translate(0 0.5)"/>
</clipPath>
</defs>
</svg>
