<svg width="38" height="38" viewBox="0 0 38 38" fill="none" xmlns="http://www.w3.org/2000/svg">
<path d="M35.5786 0H2.42679C1.08602 0 0 1.08602 0 2.42411V35.5759C0 36.914 1.08602 38 2.42679 38H35.5759C36.914 38 38 36.914 38 35.5759V2.42411C38.0027 1.08334 36.9167 0 35.5786 0ZM31.5214 23.155C32.2159 23.863 33.723 25.0509 33.4494 26.2603C33.1974 27.3704 31.5402 26.9655 29.9313 27.0299C28.0944 27.1076 27.0057 27.1478 25.9009 26.2603C25.3807 25.8393 25.075 25.3405 24.5762 24.7827C24.1231 24.2786 23.5519 23.3749 22.7743 23.4098C21.3772 23.4795 21.8143 25.4263 21.3182 26.7537C13.5525 27.9764 10.4338 23.1792 7.68259 18.524C6.34987 16.2689 4.42453 11.426 4.42453 11.426L9.91631 11.4072C9.91631 11.4072 11.6781 14.6117 12.1447 15.4376C12.5415 16.1401 12.9786 16.6979 13.4291 17.3254C13.8072 17.8456 14.4052 18.8646 15.0595 18.7815C16.1241 18.6447 16.3171 14.5151 15.6575 13.1315C15.3947 12.571 14.7645 12.3753 14.1129 12.1849C14.3328 10.7959 20.2724 10.5062 21.2324 11.5842C22.6268 13.1502 20.267 17.5104 22.1763 18.7815C24.8578 17.3763 27.1478 11.493 27.1478 11.493L33.5782 11.5333C33.5782 11.5333 32.5726 14.7136 31.5187 16.1241C30.9047 16.95 28.8667 18.7895 28.9471 20.1544C29.0115 21.2351 30.6687 22.2862 31.5214 23.155Z" fill="white"/>
</svg>
